<svg xmlns="http://www.w3.org/2000/svg" height="512" viewBox="0 0 512 512" width="512"><g id="_x30_7_Razor"><g><g><path d="m502.876 411.369c-12.724-4.751-25.117-14.052-38.328-26.92 6.972-12.091 6.447-26.868-2.788-37.798-8.123-9.615-21.259-14.234-34.264-12.065-2.191.365-4.384.668-6.576 1.019-83.2-99.294-151.528-173.209-279.265-258.701-9.087-6.064-21.326-4.351-28.431 3.965l-4.746 5.488c-13.833 16.241-12.146 40.96 3.749 55.098l157.935 140.934c13.44 12.055 33.321 13.377 48.524 3.114 3.752-2.757 8.855-2.184 11.872 1.315 9.449 10.963 27.678 31.703 49.39 54.561-110.828 13.181-222.221 7.921-331.809-15.734-52.179-11.276-68.176 78.439-16.153 86.859 154.733 25.385 312.03 13.944 409.898-11.055 17.784 15.447 35.005 28.438 49.51 35.737 9.403 4.732 20.535-2.078 20.535-12.651 0-5.85-3.637-11.141-9.053-13.166zm-164.241-131.514c-3.82-4.434-9.308-6.728-14.802-6.728-3.971 0-7.944 1.198-11.287 3.658-10.966 7.407-25.466 6.444-35.271-2.346l-157.953-140.947c-11.8-10.495-12.997-28.161-2.752-40.192l4.741-5.483c3.624-4.233 9.823-5.114 14.421-2.046 123.073 82.369 193.149 156.404 272.873 251.741-5.192.767-10.385 1.47-15.58 2.156-23.854-24.851-44.24-48.037-54.39-59.813zm-304.933 122.122c-37.959-6.14-25.664-74.072 12.188-65.908 126.59 27.32 255.568 30.356 383.362 9.035 9.331-1.544 18.66 1.682 24.365 8.431 5.061 5.991 6.345 13.64 3.614 21.537-.375.538-4.055 13.101-18.907 16.325-133.434 29.175-269.57 32.734-404.622 10.58zm462.486 25.682c-12.742-6.412-27.775-17.52-43.471-30.879 1.85-1.179 3.573-2.513 5.171-3.987 13.927 13.454 27.219 23.324 41.258 28.566 4.264 1.593 1.472 8.534-2.958 6.3z"></path><path d="m41.193 352.136c-9.938 0-18.022 8.084-18.022 18.02 0 9.938 8.084 18.022 18.022 18.022 9.935 0 18.02-8.084 18.02-18.022-.001-9.936-8.085-18.02-18.02-18.02zm0 25.378c-4.056 0-7.358-3.301-7.358-7.358 0-4.056 3.301-7.355 7.358-7.355s7.355 3.299 7.355 7.355-3.299 7.358-7.355 7.358z"></path><path d="m444.149 370.156c0-8.022-6.527-14.549-14.549-14.549s-14.549 6.527-14.549 14.549 6.527 14.549 14.549 14.549 14.549-6.527 14.549-14.549zm-14.549 3.884c-2.143 0-3.885-1.742-3.885-3.885s1.742-3.885 3.885-3.885 3.885 1.742 3.885 3.885c0 2.144-1.742 3.885-3.885 3.885z"></path></g></g></g></svg>