<svg xmlns="http://www.w3.org/2000/svg" height="512" viewBox="0 0 512 512" width="512"><g id="_x30_5_Scissors"><g><g><path d="m466.61 491.668c-.901-3.744-4.296-6.228-8.16-5.983-14.606 1.052-22.865-3.07-30.874-15.648 3.088-15.161-.437-32.079-10.253-49.089-15.148-26.356-45.417-46.678-70.407-47.269-10.857-.26-20.418-4.619-26.911-12.276-18.524-21.827-32.679-49.169-43.059-75.478.483-1.51.908-3.044 1.204-4.625l44.569-237.489c1.692-8.995.078-18.309-4.535-26.224-.005 0-.005 0-.005-.003l-8.706-14.908c-2.24-3.852-8.103-3.412-9.633.914-.489 1.393-32.766 92.78-62.815 175.39-30.051-82.613-62.331-173.997-62.82-175.39-1.531-4.329-7.384-4.766-9.633-.911l-8.701 14.906c-4.619 7.907-6.233 17.223-4.541 26.226 47.468 252.253 44.285 237.585 45.771 242.119-10.412 26.333-24.51 53.621-43.058 75.47-6.405 7.548-16.215 12.021-26.911 12.279-24.995.591-55.264 20.912-70.407 47.261-18.635 32.307-15.798 66.079 16.278 84.568 30.124 17.285 66.46-2.507 85.513-35.578 12.555-21.894 11.664-38.133 10.946-51.179-.552-10.144-.995-18.155 4.421-26.999 15.343-25.058 41.695-49.409 63.116-66.804 21.44 17.395 47.794 41.693 63.17 66.804 4.233 6.918 5.853 15.708 4.556 24.753-2.546 17.853 1.291 36.826 10.815 53.434 13.794 23.943 34.925 39.549 56.53 41.746 15.515 1.574 29.35-3.801 40.543-14.747 16.148 10.107 31.592 11.203 49.5 3.65 3.55-1.497 5.398-5.166 4.497-8.92zm-304.805-449.824c-1.213-6.483-.052-13.187 3.27-18.881l2.906-4.976c10.052 28.375 38.093 107.314 63.367 176.564-9.988 27.34-19.476 52.967-27.165 73.105zm2.984 344.338c-7.155 11.68-6.582 22.11-5.973 33.152.703 12.849 1.432 26.135-9.545 45.279-17.866 31.004-48.375 44.608-70.954 31.652-27.348-15.765-27.596-43.592-12.352-70.001 13.221-23.008 40.2-41.424 61.414-41.926 13.737-.328 26.416-6.171 34.795-16.036 11.753-13.849 28.978-38.463 44.298-77.07 24.412-61.542 83.904-228.975 99.588-273.252l2.911 4.983c3.322 5.699 4.483 12.404 3.27 18.879l-44.569 237.491c-1.317 7.014-5.244 13.153-11.065 17.291-19.688 13.991-68.047 50.723-91.818 89.558zm250.134 99.482c-2.223-1.575-5.27-1.226-7.071.812-9.644 10.875-21.62 15.945-34.706 14.598-17.928-1.825-36.461-15.794-48.365-36.451-8.222-14.336-11.685-31.324-9.498-46.61 1.646-11.498-.495-22.802-6.025-31.829-15.668-25.593-41.94-50.167-63.718-68.025 6.803-5.285 12.794-9.679 17.243-12.84 2.895-2.057 5.437-4.484 7.612-7.183 14.57 34.65 30.436 57.156 41.476 70.167 8.368 9.862 21.053 15.708 34.795 16.036 21.214.503 48.188 18.918 61.414 41.934 8.899 15.416 11.888 30.431 8.644 43.418-.344 1.372-.13 2.82.594 4.033 6.848 11.44 14.419 18.194 24.271 21.095-8.93.431-17.392-2.586-26.666-9.155z"></path><path d="m343.548 404.918c-11.691 6.72-17.783 30.533-5.322 52.176 10.394 18.026 30.684 31.409 47.787 21.589 16.585-9.555 19.642-27.171 8.175-47.125-10.3-17.898-36.692-34.678-50.64-26.64zm37.148 64.523c-9.868 5.665-24.156-1.937-33.233-17.671-6.871-11.94-7.766-32.336 1.396-37.609h.005c7.232-4.157 28.023 8.729 36.081 22.714 5.931 10.32 10.003 24.351-4.249 32.566z"></path><path d="m130.504 404.918c-14.825-8.538-41.164 10.168-50.651 26.645-11.461 19.949-8.404 37.565 8.186 47.125 16.878 9.69 37.177-3.201 47.776-21.594 0-.003 0-.003 0-.003 10.112-17.556 9.316-43.758-5.311-52.173zm-3.926 46.852v-.003c-9.071 15.736-23.334 23.347-33.222 17.679-14.257-8.22-10.185-22.25-4.26-32.566 10.481-18.182 31.252-25.501 36.091-22.719 8.676 4.994 8.794 24.74 1.391 37.609z"></path><path d="m241.012 256.936c-9.045 0-16.403 7.358-16.403 16.403 0 9.081 7.358 16.47 16.403 16.47s16.403-7.389 16.403-16.47c0-9.045-7.358-16.403-16.403-16.403zm0 22.209c-3.166 0-5.738-2.604-5.738-5.806 0-3.218 2.52-5.738 5.738-5.738 3.166 0 5.738 2.575 5.738 5.738.001 3.203-2.572 5.806-5.738 5.806z"></path></g></g></g></svg>