<svg xmlns="http://www.w3.org/2000/svg" height="512" viewBox="0 0 512 512" width="512"><g id="_x31_7_Hair_Brush"><g><g><path d="m472.28 39.568c-62.192-62.195-176.098-49.484-253.912 28.325-58.1 58.1-81.741 137.38-60.224 201.978 5.634 16.913 1.281 35.276-11.362 47.92-4.44 3.877-20.199 23.498-51.099 38.026-17.488 8.155-33.316 19.249-47.047 32.977l-33.227 33.23c-20.337 20.331-20.751 53.66 0 74.417 20.29 20.295 53.606 20.902 74.461.042l33.227-33.227c13.729-13.729 24.825-29.556 32.975-47.032 14.574-31.025 33.915-46.487 37.974-51.14 12.646-12.648 31.014-17.002 47.94-11.357 64.609 21.537 143.899-2.088 202.015-60.201 72.559-72.562 94.827-187.41 28.279-253.958zm-35.82 246.416c-55.28 55.277-130.285 77.898-191.1 57.623-20.782-6.92-43.332-1.588-58.855 13.935-3.77 4.33-24.607 21.202-40.093 54.158-7.629 16.359-18.009 31.168-30.855 44.014l-33.227 33.227c-16.185 16.185-42.74 16.599-59.381-.042-16.6-16.606-16.147-43.189 0-59.336l33.227-33.23c12.849-12.846 27.656-23.227 44.027-30.861 32.824-15.428 49.596-36.2 54.119-40.143 15.518-15.518 20.86-38.06 13.94-58.829-20.251-60.8 2.377-135.799 57.647-191.069 66.46-66.459 175.614-91.54 238.831-28.323 58.061 58.061 45.374 165.22-28.28 238.876z"></path><path d="m239.499 89c-66.187 66.187-78.9 161.166-28.34 211.729 55.792 55.792 152.884 30.502 211.729-28.343 66.163-66.16 78.856-161.122 28.293-211.682-50.56-50.565-145.519-37.872-211.682 28.296zm175.848 175.846c-62.034 62.026-150.244 74.747-196.648 28.343-46.402-46.404-33.688-134.62 28.34-196.648 62.005-62.005 150.205-74.695 196.602-28.296 46.401 46.401 33.709 134.596-28.294 196.601z"></path><path d="m400.468 64.107 4.181-4.181c2.083-2.083 2.083-5.457 0-7.54s-5.457-2.083-7.54 0l-4.181 4.181c-2.083 2.083-2.083 5.457 0 7.54 2.082 2.083 5.457 2.083 7.54 0z"></path><path d="m427.894 91.533 4.181-4.181c2.083-2.083 2.083-5.457 0-7.54s-5.457-2.083-7.54 0l-4.181 4.181c-2.083 2.083-2.083 5.457 0 7.54s5.457 2.083 7.54 0z"></path><path d="m455.32 118.96 4.181-4.181c2.083-2.083 2.083-5.457 0-7.54s-5.457-2.083-7.54 0l-4.181 4.181c-2.083 2.083-2.083 5.457 0 7.54s5.458 2.083 7.54 0z"></path><path d="m362.994 74.154 4.181-4.181c2.083-2.083 2.083-5.457 0-7.54s-5.457-2.083-7.54 0l-4.181 4.181c-2.083 2.083-2.083 5.457 0 7.54 2.082 2.083 5.457 2.083 7.54 0z"></path><path d="m390.42 101.581 4.181-4.181c2.083-2.083 2.083-5.457 0-7.54s-5.457-2.083-7.54 0l-4.181 4.181c-2.083 2.083-2.083 5.457 0 7.54s5.457 2.083 7.54 0z"></path><path d="m422.028 124.826c2.083-2.083 2.083-5.457 0-7.54s-5.457-2.083-7.54 0l-4.181 4.181c-2.083 2.083-2.083 5.457 0 7.54s5.457 2.083 7.54 0z"></path><path d="m437.733 148.894c-2.083 2.083-2.083 5.457 0 7.54s5.457 2.083 7.54 0l4.181-4.181c2.083-2.083 2.083-5.457 0-7.54s-5.457-2.083-7.54 0z"></path><path d="m325.52 84.202 4.181-4.181c2.083-2.083 2.083-5.457 0-7.54s-5.457-2.083-7.54 0l-4.181 4.181c-2.083 2.083-2.083 5.457 0 7.54 2.083 2.082 5.457 2.083 7.54 0z"></path><path d="m352.946 111.628 4.181-4.181c2.083-2.083 2.083-5.457 0-7.54s-5.457-2.083-7.54 0l-4.181 4.181c-2.083 2.083-2.083 5.457 0 7.54s5.457 2.083 7.54 0z"></path><path d="m380.373 139.055 4.181-4.181c2.083-2.083 2.083-5.457 0-7.54s-5.457-2.083-7.54 0l-4.181 4.181c-2.083 2.083-2.083 5.457 0 7.54 2.083 2.082 5.457 2.083 7.54 0z"></path><path d="m404.441 154.76-4.181 4.181c-2.083 2.083-2.083 5.457 0 7.54s5.457 2.083 7.54 0l4.181-4.181c2.083-2.083 2.083-5.457 0-7.54s-5.457-2.083-7.54 0z"></path><path d="m431.867 182.186-4.181 4.181c-2.083 2.083-2.083 5.457 0 7.54s5.457 2.083 7.54 0l4.181-4.181c2.083-2.083 2.083-5.457 0-7.54s-5.457-2.083-7.54 0z"></path><path d="m288.043 94.252 4.184-4.181c2.083-2.083 2.083-5.46.003-7.543-2.083-2.083-5.46-2.08-7.543-.003l-4.184 4.181c-2.083 2.083-2.083 5.46-.003 7.543 2.083 2.082 5.458 2.083 7.543.003z"></path><path d="m315.47 121.678 4.184-4.181c2.083-2.083 2.083-5.46.003-7.543-2.083-2.083-5.46-2.08-7.543-.003l-4.184 4.181c-2.083 2.083-2.083 5.46-.003 7.543 2.082 2.082 5.457 2.083 7.543.003z"></path><path d="m342.896 149.105 4.184-4.181c2.083-2.083 2.083-5.46.003-7.543-2.083-2.083-5.46-2.08-7.543-.003l-4.184 4.181c-2.083 2.083-2.083 5.46-.003 7.543 2.083 2.082 5.458 2.083 7.543.003z"></path><path d="m374.507 172.35c2.083-2.083 2.083-5.46.003-7.543-2.083-2.083-5.46-2.08-7.543-.003l-4.184 4.181c-2.083 2.083-2.083 5.46-.003 7.543 2.082 2.082 5.457 2.083 7.543.003z"></path><path d="m394.393 192.231-4.184 4.181c-2.083 2.083-2.083 5.46-.003 7.543 2.082 2.082 5.457 2.083 7.543.003l4.184-4.181c2.083-2.083 2.083-5.46.003-7.543-2.083-2.083-5.46-2.081-7.543-.003z"></path><path d="m421.82 219.657-4.184 4.181c-2.083 2.083-2.083 5.46-.003 7.543 2.082 2.082 5.457 2.083 7.543.003l4.184-4.181c2.083-2.083 2.083-5.46.003-7.543-2.083-2.083-5.46-2.08-7.543-.003z"></path><path d="m277.999 131.725 4.181-4.184c2.08-2.083 2.08-5.46-.003-7.543-2.083-2.078-5.46-2.08-7.543.003l-4.181 4.184c-2.08 2.083-2.08 5.46.003 7.543 2.085 2.079 5.46 2.08 7.543-.003z"></path><path d="m305.425 159.152 4.181-4.184c2.08-2.083 2.08-5.46-.003-7.543-2.083-2.078-5.46-2.08-7.543.003l-4.181 4.184c-2.08 2.083-2.08 5.46.003 7.543 2.085 2.079 5.46 2.08 7.543-.003z"></path><path d="m337.03 182.394c2.083-2.083 2.083-5.457 0-7.54s-5.457-2.083-7.54 0l-4.181 4.181c-2.083 2.083-2.083 5.457 0 7.54s5.457 2.083 7.54 0z"></path><path d="m356.917 202.281-4.181 4.181c-2.083 2.083-2.083 5.457 0 7.54s5.457 2.083 7.54 0l4.181-4.181c2.083-2.083 2.083-5.457 0-7.54s-5.457-2.083-7.54 0z"></path><path d="m384.343 229.707-4.181 4.181c-2.083 2.083-2.083 5.457 0 7.54s5.457 2.083 7.54 0l4.181-4.181c2.083-2.083 2.083-5.457 0-7.54-2.082-2.083-5.457-2.083-7.54 0z"></path><path d="m240.522 141.773 4.181-4.181c2.083-2.083 2.083-5.457 0-7.54s-5.457-2.083-7.54 0l-4.181 4.181c-2.083 2.083-2.083 5.457 0 7.54s5.457 2.083 7.54 0z"></path><path d="m267.951 169.199 4.181-4.184c2.08-2.083 2.08-5.46-.003-7.543-2.083-2.078-5.46-2.08-7.543.003l-4.181 4.184c-2.08 2.083-2.08 5.46.003 7.543 2.085 2.079 5.46 2.08 7.543-.003z"></path><path d="m299.559 192.442c2.08-2.083 2.08-5.46-.003-7.543-2.083-2.078-5.46-2.08-7.543.003l-4.181 4.184c-2.08 2.083-2.08 5.46.003 7.543 2.085 2.079 5.46 2.08 7.543-.003z"></path><path d="m319.44 212.328-4.181 4.184c-2.08 2.083-2.08 5.46.003 7.543 2.085 2.079 5.46 2.08 7.543-.003l4.181-4.184c2.08-2.083 2.08-5.46-.003-7.543-2.083-2.077-5.46-2.08-7.543.003z"></path><path d="m346.867 239.755-4.181 4.184c-2.08 2.083-2.08 5.46.003 7.543 2.085 2.079 5.46 2.08 7.543-.003l4.181-4.184c2.08-2.083 2.08-5.46-.003-7.543-2.083-2.078-5.46-2.08-7.543.003z"></path><path d="m374.293 267.181-4.181 4.184c-2.08 2.083-2.08 5.46.003 7.543 2.085 2.079 5.46 2.08 7.543-.003l4.181-4.184c2.08-2.083 2.08-5.46-.003-7.543-2.083-2.077-5.46-2.08-7.543.003z"></path><path d="m234.656 175.065c2.083-2.083 2.083-5.457 0-7.54s-5.457-2.083-7.54 0l-4.181 4.181c-2.083 2.083-2.083 5.457 0 7.54s5.457 2.083 7.54 0z"></path><path d="m262.083 202.492c2.083-2.083 2.083-5.457 0-7.54s-5.457-2.083-7.54 0l-4.181 4.181c-2.083 2.083-2.083 5.457 0 7.54s5.457 2.083 7.54 0z"></path><path d="m281.969 222.378-4.181 4.181c-2.083 2.083-2.083 5.457 0 7.54s5.457 2.083 7.54 0l4.181-4.181c2.083-2.083 2.083-5.457 0-7.54s-5.457-2.083-7.54 0z"></path><path d="m309.396 249.805-4.181 4.181c-2.083 2.083-2.083 5.457 0 7.54s5.457 2.083 7.54 0l4.181-4.181c2.083-2.083 2.083-5.457 0-7.54s-5.457-2.083-7.54 0z"></path><path d="m336.822 277.231-4.181 4.181c-2.083 2.083-2.083 5.457 0 7.54s5.457 2.083 7.54 0l4.181-4.181c2.083-2.083 2.083-5.457 0-7.54s-5.457-2.083-7.54 0z"></path><path d="m217.069 204.999-4.181 4.181c-2.083 2.083-2.083 5.457 0 7.54s5.457 2.083 7.54 0l4.181-4.181c2.083-2.083 2.083-5.457 0-7.54s-5.457-2.083-7.54 0z"></path><path d="m244.495 232.425-4.181 4.181c-2.083 2.083-2.083 5.457 0 7.54s5.457 2.083 7.54 0l4.181-4.181c2.083-2.083 2.083-5.457 0-7.54-2.083-2.082-5.457-2.082-7.54 0z"></path><path d="m271.922 259.852-4.181 4.181c-2.083 2.083-2.083 5.457 0 7.54s5.457 2.083 7.54 0l4.181-4.181c2.083-2.083 2.083-5.457 0-7.54s-5.457-2.083-7.54 0z"></path><path d="m299.348 287.278-4.181 4.181c-2.083 2.083-2.083 5.457 0 7.54s5.457 2.083 7.54 0l4.181-4.181c2.083-2.083 2.083-5.457 0-7.54-2.083-2.082-5.457-2.082-7.54 0z"></path><path d="m207.021 242.473-4.181 4.181c-2.083 2.083-2.083 5.457 0 7.54s5.457 2.083 7.54 0l4.181-4.181c2.083-2.083 2.083-5.457 0-7.54-2.082-2.083-5.457-2.083-7.54 0z"></path><path d="m234.448 269.899-4.181 4.181c-2.083 2.083-2.083 5.457 0 7.54s5.457 2.083 7.54 0l4.181-4.181c2.083-2.083 2.083-5.457 0-7.54s-5.457-2.083-7.54 0z"></path><path d="m261.874 297.326-4.181 4.181c-2.083 2.083-2.083 5.457 0 7.54s5.457 2.083 7.54 0l4.181-4.181c2.083-2.083 2.083-5.457 0-7.54s-5.457-2.083-7.54 0z"></path></g></g></g></svg>