<svg xmlns="http://www.w3.org/2000/svg" height="512" viewBox="0 0 512 512" width="512"><g id="_x30_2_Barber_Chair"><g><g><path d="m452.663 234.523c0-11.649-9.475-21.123-21.121-21.123-11.649 0-21.123 9.475-21.123 21.123v25.276c0 11.649 9.475 21.123 21.123 21.123h10.433v38.958c0 9.503-4.215 18.402-11.188 24.466v-1.14c0-13.778-11.209-24.99-24.987-24.99h-14.195v-215.926c0-28.231-22.967-51.197-51.195-51.197h-24.39v-19.499c0-17.392-14.148-31.54-31.54-31.54h-56.983c-17.392 0-31.54 14.148-31.54 31.54v19.498h-24.391c-28.228 0-51.195 22.966-51.195 51.197v215.926h-14.195c-13.778 0-24.987 11.211-24.987 24.99v1.14c-6.973-6.063-11.188-14.963-11.188-24.466v-38.958h10.459c11.649 0 21.123-9.475 21.123-21.123v-25.276c0-11.649-9.475-21.123-21.123-21.123-11.646 0-21.121 9.475-21.121 21.123-.005 10.407-.001 17.915-.003 85.357 0 15.525 8.509 29.765 21.852 37.352v14.684c0 13.778 11.209 24.987 24.987 24.987h98.966v55.47h-22.014c-13.778 0-24.987 11.211-24.987 24.99v9.597c0 5.335 1.712 10.26 4.572 14.323h-49.364c-2.945 0-5.332 2.388-5.332 5.332 0 2.945 2.388 5.332 5.332 5.332h285.278c2.945 0 5.332-2.388 5.332-5.332 0-2.945-2.388-5.332-5.332-5.332h-49.364c2.859-4.063 4.572-8.987 4.572-14.323v-9.597c0-13.778-11.209-24.99-24.987-24.99h-22.014v-55.47h98.967c13.778 0 24.987-11.209 24.987-24.987v-14.684c13.343-7.587 21.852-21.827 21.852-37.352.003-8.73-.008 31.623.024-85.356zm-382.659 0c0-5.767 4.692-10.459 10.456-10.459 5.767 0 10.459 4.692 10.459 10.459v25.276c0 5.767-4.692 10.459-10.459 10.459h-10.456zm136.617-202.929c0-11.511 9.365-20.876 20.876-20.876h56.983c11.511 0 20.876 9.365 20.876 20.876v19.498h-98.734v-19.498zm-75.585 70.696c0-22.349 18.181-40.533 40.53-40.533h168.844c22.349 0 40.53 18.184 40.53 40.533v215.926h-249.904zm212.134 375.072v9.597c0 7.897-6.426 14.323-14.322 14.323h-145.719c-7.897 0-14.322-6.426-14.322-14.323v-9.597c0-7.899 6.426-14.325 14.322-14.325h145.719c7.897 0 14.322 6.426 14.322 14.325zm-47-24.99h-80.363v-55.47h80.363zm109.63-66.134c-36.927 0-263.616 0-299.624 0-7.897 0-14.322-6.426-14.322-14.322 0-7.85 0-30.096 0-28.71 0-7.899 6.426-14.325 14.322-14.325h299.624c7.897 0 14.323 6.426 14.323 14.325 0 .882 0 29.447 0 28.71 0 7.896-6.426 14.322-14.323 14.322zm25.742-115.981c-5.767 0-10.459-4.692-10.459-10.459v-25.276c0-5.767 4.692-10.459 10.459-10.459 5.764 0 10.456 4.692 10.456 10.459-.003 4.299-.024 37.185-.023 35.735z"></path><path d="m186.5 89.361c-2.945 0-5.332 2.388-5.332 5.332v190.59c0 2.945 2.388 5.332 5.332 5.332 2.945 0 5.332-2.388 5.332-5.332v-190.59c.001-2.945-2.387-5.332-5.332-5.332z"></path><path d="m232.827 89.361c-2.945 0-5.332 2.388-5.332 5.332v190.59c0 2.945 2.388 5.332 5.332 5.332s5.332-2.388 5.332-5.332v-190.59c0-2.945-2.388-5.332-5.332-5.332z"></path><path d="m279.15 89.361c-2.945 0-5.332 2.388-5.332 5.332v190.59c0 2.945 2.388 5.332 5.332 5.332s5.332-2.388 5.332-5.332v-190.59c0-2.945-2.387-5.332-5.332-5.332z"></path><path d="m325.476 89.361c-2.945 0-5.332 2.388-5.332 5.332v190.59c0 2.945 2.388 5.332 5.332 5.332 2.945 0 5.332-2.388 5.332-5.332v-190.59c0-2.945-2.387-5.332-5.332-5.332z"></path></g></g></g></svg>