<svg xmlns="http://www.w3.org/2000/svg" height="512" viewBox="0 0 512 512" width="512"><g id="_x33_6_Shaving_Brush"><g><path d="m412.217 46.33c-102.197-61.914-210.234-61.914-312.436 0-15.055 9.128-19.968 28.796-10.951 43.844l97.96 163.519c-53.669 53.716-54.102 153.369-3.465 208.749-12.481 1.371-22.261 11.855-22.261 24.695 0 13.768 11.201 24.969 24.969 24.969h139.934c13.768 0 24.969-11.201 24.969-24.969 0-12.84-9.78-23.324-22.261-24.695 50.642-55.385 50.2-155.036-3.465-208.749l97.96-163.519c9.017-15.048 4.104-34.716-10.953-43.844zm-71.946 440.807c0 7.889-6.418 14.304-14.304 14.304h-139.934c-7.886 0-14.304-6.415-14.304-14.304s6.418-14.304 14.304-14.304h139.934c7.886 0 14.304 6.415 14.304 14.304zm-26.325-24.974h-115.892c-54.376-49.606-55.266-151.059-2.411-202.291h120.714c52.85 51.227 51.969 152.682-2.411 202.291zm100.075-377.467-98.555 164.512h-27.259l50.139-130.821c1.054-2.749-.32-5.832-3.07-6.884-2.749-1.052-5.835.318-6.887 3.072l-51.599 134.633h-15.458v-159.643c0-2.947-2.388-5.332-5.332-5.332-2.945 0-5.332 2.385-5.332 5.332v159.643h-15.458l-51.601-134.633c-1.052-2.755-4.148-4.124-6.887-3.072-2.749 1.052-4.124 4.135-3.07 6.884l50.139 130.821h-27.259l-98.553-164.512c-6.012-10.034-2.721-23.151 7.329-29.244 98.581-59.732 202.801-59.722 301.382 0 10.052 6.093 13.343 19.21 7.331 29.244z"></path></g></g></svg>