<svg xmlns="http://www.w3.org/2000/svg" height="512" viewBox="0 0 512 512" width="512"><g id="_x31_3_Hair_Clipper"><g><g><path d="m361.702.054c-2.947 0-5.332 2.388-5.332 5.332v23.443h-15.762v-23.443c0-2.945-2.385-5.332-5.332-5.332s-5.332 2.388-5.332 5.332v23.443h-15.757v-23.443c0-2.945-2.385-5.332-5.332-5.332s-5.332 2.388-5.332 5.332v23.443h-15.762v-23.443c0-2.945-2.385-5.332-5.332-5.332s-5.332 2.388-5.332 5.332v23.443h-15.762v-23.443c0-2.945-2.388-5.332-5.332-5.332-2.945 0-5.332 2.388-5.332 5.332v23.443h-15.762v-23.443c0-2.945-2.388-5.332-5.332-5.332s-5.332 2.388-5.332 5.332v23.443h-15.76v-23.443c0-2.945-2.388-5.332-5.332-5.332s-5.332 2.388-5.332 5.332v23.443h-15.762v-23.443c0-2.945-2.388-5.332-5.332-5.332s-5.332 2.388-5.332 5.332v23.443h-15.76v-23.443c0-2.945-2.388-5.332-5.332-5.332-2.945 0-5.332 2.388-5.332 5.332v65.155c0 13.133 10.685 23.818 23.818 23.818h6.092v156.183c-47.106 61.403-10.576 178.272 23.896 238.064 8.3 14.395 23.854 23.339 40.59 23.339h33.274c16.736 0 32.29-8.943 40.59-23.339 34.469-59.791 71.003-176.657 23.896-238.061 0-81.828 0-76.036 0-156.186h6.092c13.133 0 23.818-10.685 23.818-23.818 0-23.959 0-41.229 0-65.155-.003-2.944-2.388-5.332-5.335-5.332zm-176.161 246.904v-43.358h140.918v43.358zm140.918-54.023h-140.918v-79.91c14.013 31.392 40.384 51.843 70.459 51.843 30.074 0 56.443-20.449 70.459-51.841zm-70.459-38.731c-33.999 0-63.644-32.978-69.388-76.892 2.284-6.051 8.09-10.386 14.931-10.386h108.914c6.839 0 12.646 4.336 14.931 10.387-5.742 43.913-35.387 76.891-69.388 76.891zm47.99 329.076c-6.405 11.104-18.418 18.001-31.353 18.001h-33.274c-12.937 0-24.95-6.897-31.353-18.001-41.28-71.604-63.735-174.274-25.202-225.645h146.383c38.536 51.371 16.079 154.041-25.201 225.645zm52.379-412.738c0 7.254-5.9 13.153-13.153 13.153h-6.092v-.768c0-13.643-11.288-26.666-26.666-26.666h-108.915c-15.249 0-26.666 12.917-26.666 26.666v.768h-6.092c-7.254 0-13.153-5.9-13.153-13.153v-31.048h200.739v31.048z"></path><path d="m256 299.816c-23.151 0-41.288 34.987-41.288 79.652 0 44.642 18.137 79.611 41.288 79.611s41.288-34.969 41.288-79.611c0-44.664-18.137-79.652-41.288-79.652zm0 148.599c-14.484 0-30.624-28.314-30.624-68.946 0-41.267 15.835-68.988 30.624-68.988s30.624 27.721 30.624 68.988c0 40.632-16.137 68.946-30.624 68.946z"></path><path d="m233.106 379.419c0 12.654 10.271 22.948 22.894 22.948 12.622 0 22.891-10.295 22.891-22.948 0-12.622-10.269-22.891-22.891-22.891s-22.894 10.269-22.894 22.891zm35.121 0c0 6.775-5.483 12.284-12.227 12.284-6.743 0-12.229-5.509-12.229-12.284 0-6.741 5.486-12.227 12.229-12.227 6.743.001 12.227 5.486 12.227 12.227z"></path></g></g></g></svg>